<?xml version="1.0" encoding="UTF-8" standalone="no"?>
<svg
   id="ejBTJIKzv5h1"
   viewBox="0 0 35.9885 35.9885"
   shape-rendering="geometricPrecision"
   text-rendering="geometricPrecision"
   version="1.1"
   sodipodi:docname="230539502-b5f42f23-e5a0-4f7e-8cd7-038666535d08.svg"
   inkscape:version="1.3 (0e150ed6c4, 2023-07-21)"
   xmlns:inkscape="http://www.inkscape.org/namespaces/inkscape"
   xmlns:sodipodi="http://sodipodi.sourceforge.net/DTD/sodipodi-0.dtd"
   xmlns="http://www.w3.org/2000/svg"
   xmlns:svg="http://www.w3.org/2000/svg">
  <defs
     id="defs5" />
  <sodipodi:namedview
     id="namedview5"
     pagecolor="#ffffff"
     bordercolor="#000000"
     borderopacity="0.25"
     inkscape:showpageshadow="2"
     inkscape:pageopacity="0.0"
     inkscape:pagecheckerboard="0"
     inkscape:deskcolor="#d1d1d1"
     inkscape:zoom="22.590551"
     inkscape:cx="17.994249"
     inkscape:cy="17.994249"
     inkscape:window-width="1920"
     inkscape:window-height="1009"
     inkscape:window-x="-8"
     inkscape:window-y="-8"
     inkscape:window-maximized="1"
     inkscape:current-layer="ejBTJIKzv5h1" />
  <g
     id="g5">
    <circle
       r="18"
       transform="translate(18.0471 17.9529)"
       fill="#ffcc4d"
       id="circle1" />
    <path
       d="M21.002,26.994c-.104998.000165-.209337-.016718-.309-.05-1.743573-.574707-3.623427-.574707-5.367,0-.524859.171296-1.088237-.118305-1.258341-.646842s.117482-1.095862.642341-1.267158c2.144131-.706788,4.455869-.706788,6.6,0c.523.173.811.74.641,1.268-.133931.414744-.517299.695611-.95.696h.001Z"
       transform="translate(0 1)"
       fill="#65471b"
       stroke-width="1.00249"
       id="path1" />
    <path
       d="M25.5,8C21.910149,8,19,10.910149,19,14.5s2.910149,6.5,6.5,6.5s6.5-2.910149,6.5-6.5-2.910149-6.5-6.5-6.5Zm-15,0C6.910149,8,4,10.910149,4,14.5s2.910149,6.5,6.5,6.5s6.5-2.910149,6.5-6.5-2.910149-6.5-6.5-6.5Z"
       transform="translate(0 2)"
       fill="#fff"
       stroke-width="1.18182"
       id="path2" />
    <path
       d="M25,18.1c2.761424,0,5-2.238576,5-5s-2.238576-5-5-5-5,2.238576-5,5s2.238576,5,5,5Zm-14,0c2.761424,0,5-2.238576,5-5s-2.238576-5-5-5-5,2.238576-5,5s2.238576,5,5,5Z"
       transform="translate(0 2)"
       fill="#65471b"
       stroke-width="1.00249"
       id="path3" />
    <path
       d="M27.707,14.082c-.333113.020555-.646249.165876-.877.407-.458.459-.54,1.12-.184,1.476.357.357,1.02.276,1.479-.183.458-.46.54-1.122.184-1.479-.161237-.154026-.379442-.233769-.602-.22v-.001Zm-14,0c-.333113.020555-.646249.165876-.877.407-.458.459-.54,1.12-.184,1.476.357.357,1.019.276,1.477-.183.46-.46.543-1.122.186-1.479-.161237-.154026-.379442-.233769-.602-.22v-.001ZM23.885,9.067c-.674.02-1.408.338-1.994.926-1.045,1.046-1.231,2.55-.418,3.363.814.813,2.32.625,3.365-.42c1.044-1.046,1.229-2.551.416-3.363-.356-.356-.845-.522-1.37-.506h.001Zm-14,0c-.674.02-1.408.338-1.994.926-1.045,1.046-1.231,2.55-.418,3.363.814.813,2.32.625,3.365-.42c1.044-1.046,1.229-2.551.416-3.363-.356-.356-.845-.522-1.37-.506h.001Z"
       transform="translate(0 2)"
       fill="#fff"
       id="path4" />
    <path
       d="M28.994,8.011c.003408-.548898-.434223-.998995-.983-1.011-.067-.001-1.653-.056-3.304-1.707-.390465-.390465-1.023535-.390465-1.414,0s-.390465,1.023535,0,1.414C25.56,8.974,27.901,9,28,9c.546799-.00054.990703-.442211.994-.989ZM12.707,6.707c.390465-.390465.390465-1.023535,0-1.414s-1.023535-.390465-1.414,0C9.652,6.934,8.075,6.998,7.99,7c-.552285.002761-.997761.452715-.995,1.005s.452715.997761,1.005.995c.099,0,2.44-.026,4.707-2.293Z"
       fill="#65471b"
       id="path5" />
  </g>
  <path
     style="fill:#292f33;fill-opacity:1;stroke-width:0.00194772;stroke-dasharray:none"
     d="M 10.69031,20.069754 C 9.9272965,19.988279 9.3658769,19.835363 8.8139528,19.558682 8.2994849,19.300779 7.9698827,19.06448 7.536309,18.642714 6.7844877,17.911366 6.2966057,17.008149 6.1055487,15.993944 5.9957781,15.411238 6.0377745,14.378963 6.1941622,13.81581 c 0.5197697,-1.871691 2.0298671,-3.256077 3.9428198,-3.61459 0.582882,-0.10924 1.52576,-0.07023 2.124782,0.0879 1.711457,0.451805 3.06584,1.805525 3.551569,3.549833 0.112586,0.404305 0.121669,0.498071 0.121669,1.255854 0,0.759121 -0.0089,0.851067 -0.122514,1.259032 -0.140989,0.506468 -0.423273,1.12771 -0.697561,1.535172 -0.431469,0.640958 -1.278565,1.370829 -1.97141,1.698597 -0.719611,0.340431 -1.797129,0.552203 -2.453207,0.482146 z m 3.032242,-1.981399 c 0.264153,-0.124393 0.506676,-0.352865 0.66951,-0.63072 0.17176,-0.293086 0.195779,-0.762648 0.0518,-1.012706 -0.287272,-0.498933 -1.097768,-0.492972 -1.604239,0.0118 -0.0912,0.0909 -0.218692,0.254906 -0.28331,0.364465 -0.100991,0.17123 -0.117487,0.249383 -0.117487,0.556625 0,0.319405 0.01262,0.373985 0.118617,0.513091 0.162272,0.212955 0.359247,0.300408 0.678177,0.301099 0.187679,4.07e-4 0.330529,-0.03 0.486929,-0.103652 z M 9.1852564,15.844269 c 1.0645596,-0.172645 2.0911726,-1.067363 2.4527456,-2.137627 0.118832,-0.351745 0.168009,-0.82527 0.117973,-1.135966 -0.09925,-0.616266 -0.445604,-1.092557 -0.977132,-1.343695 -0.248334,-0.117334 -0.348342,-0.138219 -0.730394,-0.152531 -0.819921,-0.03072 -1.535976,0.268435 -2.177072,0.909531 -1.0332964,1.033297 -1.2202161,2.57293 -0.4106527,3.382493 0.2491325,0.249133 0.4938886,0.380379 0.8564146,0.459241 0.3390868,0.07376 0.5057323,0.07732 0.8681175,0.01855 z"
     id="path8" />
  <path
     style="fill:#292f33;fill-opacity:1;stroke-width:0.00194772;stroke-dasharray:none"
     d="m 24.700593,20.06844 c -1.735911,-0.14643 -3.169836,-1.044304 -4.022926,-2.519017 -0.762913,-1.318827 -0.851569,-3.016723 -0.232154,-4.446072 0.660695,-1.524606 2.176563,-2.682344 3.828317,-2.923862 0.554567,-0.08109 1.433438,-0.03398 1.966228,0.105389 1.736106,0.454141 3.134802,1.853075 3.574468,3.575077 0.212427,0.831996 0.210268,1.678046 -0.0064,2.506047 -0.478572,1.828896 -1.983352,3.242045 -3.845945,3.611756 -0.356034,0.07067 -0.973055,0.115021 -1.26159,0.09068 z m 3.068577,-2.010816 c 0.28244,-0.141137 0.520208,-0.377653 0.658025,-0.65456 0.120598,-0.242311 0.113255,-0.84081 -0.0124,-1.010222 -0.169958,-0.229151 -0.401822,-0.329414 -0.726232,-0.314034 -0.661578,0.03136 -1.222008,0.582905 -1.270736,1.250584 -0.0532,0.728928 0.621901,1.092736 1.351338,0.728232 z M 23.488015,15.77611 c 0.941157,-0.276794 1.800409,-1.100238 2.137418,-2.048346 0.119573,-0.336396 0.135293,-0.436401 0.133021,-0.846272 -0.003,-0.543315 -0.09553,-0.840493 -0.369635,-1.187258 -0.333076,-0.421372 -0.814134,-0.628029 -1.459854,-0.627135 -0.468996,6.5e-4 -0.758326,0.07461 -1.242488,0.31763 -0.300019,0.150589 -0.456996,0.269796 -0.774672,0.58828 -0.425197,0.426278 -0.628581,0.729024 -0.8113,1.207655 -0.09974,0.261274 -0.114196,0.367303 -0.116103,0.851752 -0.0021,0.532331 0.0032,0.564625 0.138839,0.851009 0.393198,0.830022 1.349881,1.191163 2.364774,0.892685 z"
     id="path9" />
</svg>
